<?xml version="1.0" standalone="no"?>
<!DOCTYPE svg PUBLIC "-//W3C//DTD SVG 20010904//EN"
 "http://www.w3.org/TR/2001/REC-SVG-20010904/DTD/svg10.dtd">
<svg version="1.0" xmlns="http://www.w3.org/2000/svg"
 width="230.000000pt" height="267.000000pt" viewBox="0 0 230.000000 267.000000"
 preserveAspectRatio="xMidYMid meet">
<metadata>
Created by potrace 1.10, written by Peter Selinger 2001-2011
</metadata>
<g transform="translate(0.000000,267.000000) scale(0.100000,-0.100000)"
fill="#000000" stroke="none">
<path d="M1646 2503 c-31 -17 -91 -76 -107 -105 -11 -21 -13 -68 -6 -168 10
-135 -30 -223 -141 -312 -21 -17 -22 -17 -23 0 0 9 -2 37 -5 62 l-5 45 35 -40
36 -40 0 32 c0 17 -7 39 -16 47 -8 9 -11 16 -5 16 20 0 11 29 -16 50 -22 17
-25 23 -13 30 10 6 23 2 40 -15 36 -35 52 -33 39 4 -13 37 -53 64 -85 58 -35
-6 -41 11 -7 19 15 4 33 11 40 16 7 6 14 5 18 -3 8 -12 75 -42 81 -36 7 7 -24
73 -40 86 -8 7 -31 11 -50 10 -30 -3 -41 2 -70 34 -31 34 -55 47 -93 49 -7 1
-13 5 -13 10 0 5 -4 6 -10 3 -5 -3 -10 -1 -10 5 0 6 -5 8 -12 4 -6 -4 -8 -3
-5 2 12 19 -9 29 -48 23 -35 -5 -36 -6 -9 -8 21 -1 37 -10 52 -31 14 -18 35
-31 57 -36 20 -3 40 -15 46 -26 6 -10 20 -23 31 -27 l22 -8 -22 -5 c-14 -4
-20 -2 -15 4 3 7 1 8 -5 4 -30 -19 20 -53 59 -41 15 5 19 4 15 -4 -4 -6 -20
-11 -37 -11 -30 0 -38 -17 -17 -38 9 -9 8 -12 -4 -12 -26 0 -42 26 -25 42 13
11 11 17 -14 41 -16 15 -29 33 -29 41 0 7 -7 19 -15 26 -13 11 -15 9 -11 -11
3 -13 5 -32 5 -41 1 -10 8 -18 16 -18 8 0 16 -6 16 -12 3 -28 4 -34 14 -49 9
-15 46 -39 60 -39 3 0 3 5 0 10 -4 6 7 10 27 10 l33 0 -33 -17 c-26 -13 -38
-14 -58 -4 -14 6 -29 9 -34 6 -4 -3 -14 3 -21 12 -10 12 -10 14 -1 9 23 -14
12 14 -13 30 -14 9 -23 20 -20 24 3 5 0 12 -6 16 -6 3 -20 27 -31 51 -11 25
-22 42 -25 40 -2 -3 0 -14 6 -25 6 -12 11 -30 11 -41 0 -12 7 -21 15 -21 8 0
15 -4 15 -10 0 -15 -6 -12 -35 14 -15 14 -24 29 -21 35 16 24 -8 63 -60 97
-30 20 -54 38 -54 41 0 10 43 43 54 43 6 -1 22 -7 36 -15 l25 -14 -30 -2 c-24
-1 -20 -3 15 -9 25 -4 50 -5 57 -3 6 2 14 -4 17 -14 6 -19 83 -53 119 -53 9 0
17 -7 17 -16 0 -22 24 -12 28 12 5 38 -14 49 -78 47 -50 -1 -62 2 -70 18 -12
22 -99 68 -132 71 -71 5 -166 -16 -225 -48 -33 -19 -67 -41 -73 -49 -7 -8 -26
-15 -42 -15 -16 0 -41 -9 -55 -20 l-25 -20 48 4 c58 5 74 -1 74 -25 0 -11 -14
-25 -35 -35 -20 -9 -40 -25 -46 -36 -13 -24 -2 -78 17 -78 10 0 11 -6 4 -26
-6 -14 -7 -36 -4 -49 5 -19 1 -24 -18 -28 l-23 -4 22 -8 c19 -6 21 -11 12 -26
-8 -15 -5 -25 10 -45 18 -23 20 -24 30 -7 10 17 10 17 11 -2 0 -11 5 -27 11
-35 7 -11 8 -6 4 20 -6 32 10 99 20 88 3 -2 -1 -18 -7 -35 -9 -25 -9 -35 3
-54 15 -24 15 -59 -1 -59 -4 0 -28 11 -51 25 -24 14 -40 25 -36 25 5 0 1 10
-7 22 -9 12 -16 32 -16 44 0 25 -37 119 -60 154 -47 69 -50 82 -33 154 8 37
12 78 9 91 -3 12 -27 37 -52 54 l-46 30 -50 -20 c-28 -11 -59 -24 -69 -29 -38
-21 -108 -117 -134 -185 -15 -38 -37 -95 -50 -126 -12 -30 -28 -82 -35 -115
-7 -32 -16 -63 -20 -69 -7 -10 -17 -66 -44 -264 -22 -153 -9 -498 25 -666 12
-55 22 -108 25 -119 2 -10 13 -57 25 -104 12 -48 21 -117 21 -158 0 -87 13
-113 46 -93 55 34 76 218 42 370 -27 120 -25 125 15 49 46 -85 69 -108 93 -94
22 15 19 58 -13 165 -31 103 -31 112 1 72 29 -38 40 -41 49 -14 5 17 -4 61
-45 220 -13 47 -7 49 19 6 20 -35 46 -53 58 -41 3 3 -1 48 -10 99 -10 51 -17
115 -17 143 l0 49 20 -25 c24 -30 26 -15 4 29 -19 39 -16 202 4 209 7 2 12 21
12 42 0 21 4 41 8 44 4 2 8 -11 8 -31 0 -23 7 -40 19 -49 16 -12 17 -18 8 -33
-53 -84 -29 -407 31 -419 9 -2 16 1 16 7 0 6 5 11 10 11 6 0 10 -10 10 -22 0
-30 36 -88 54 -88 7 0 17 10 20 22 6 21 8 19 20 -15 16 -45 34 -67 52 -67 22
0 33 41 24 88 -10 55 3 54 18 -2 13 -50 37 -78 61 -74 9 2 17 13 19 26 5 34
15 26 46 -39 26 -57 28 -65 17 -115 -6 -30 -23 -76 -38 -102 -26 -44 -28 -55
-27 -152 0 -58 2 -130 4 -160 3 -48 -1 -65 -35 -131 -40 -80 -64 -102 -126
-114 -42 -8 -109 16 -109 39 0 20 -31 36 -69 36 -50 0 -124 -85 -91 -105 5 -3
1 -19 -10 -38 -24 -39 -25 -70 -4 -88 13 -10 17 -10 25 2 5 8 9 19 9 26 0 20
19 25 36 9 19 -20 73 -21 108 -2 37 19 221 22 214 4 -3 -7 -2 -21 1 -32 7 -17
10 -16 37 11 26 28 31 29 50 16 21 -13 21 -16 7 -43 -8 -16 -18 -32 -24 -35
-14 -9 -11 -52 6 -85 16 -31 33 -39 39 -17 14 44 17 50 27 40 16 -16 69 -3 69
17 0 20 -1 19 118 61 75 27 91 29 165 24 45 -3 92 -11 104 -17 25 -13 58 6 46
26 -4 6 1 5 10 -3 13 -11 15 -17 6 -28 -16 -18 -6 -26 21 -18 34 11 42 47 19
94 -23 48 -19 47 -121 36 -60 -6 -69 -4 -88 15 -18 18 -21 29 -16 64 13 89 31
142 53 164 16 16 22 30 17 44 -6 19 -5 19 20 3 14 -9 30 -14 36 -10 13 8 13
65 0 102 -10 28 -10 28 7 7 10 -11 54 -87 98 -168 44 -81 93 -163 108 -182 25
-29 31 -32 49 -23 18 10 24 8 38 -11 18 -24 87 -35 82 -12 -3 18 7 15 40 -13
51 -43 98 -31 98 26 0 17 3 18 21 9 26 -14 49 3 49 36 0 19 5 24 25 24 39 0
51 42 26 84 -19 29 -144 150 -270 260 -31 27 -92 82 -137 122 -45 41 -93 83
-107 94 -14 11 -36 37 -48 58 -13 20 -33 50 -46 66 -24 28 -24 29 -5 50 23 25
52 108 52 150 1 27 2 29 11 13 7 -12 8 -40 4 -73 -6 -50 -5 -54 14 -54 23 0
60 51 62 85 0 11 3 15 5 9 3 -6 15 -9 29 -7 31 6 50 54 49 121 -1 45 0 51 13
40 25 -20 41 14 37 77 -2 42 1 55 12 55 8 0 14 7 14 15 0 8 4 15 9 15 6 0 10
-49 10 -112 -1 -64 4 -114 9 -116 16 -5 50 60 67 124 l15 59 -6 -90 c-7 -109
-30 -239 -50 -276 -19 -38 -18 -59 5 -59 31 0 78 46 102 100 12 28 24 48 27
46 2 -3 -1 -26 -7 -53 -49 -220 -64 -279 -72 -288 -16 -16 -10 -22 20 -17 50
7 104 82 135 187 l14 50 -5 -45 c-3 -25 -7 -56 -9 -70 -26 -159 -34 -231 -28
-270 11 -71 21 -90 47 -90 22 0 26 6 36 63 12 65 55 250 71 302 19 66 27 224
21 405 -8 200 -96 620 -160 756 -59 127 -188 280 -263 314 -52 23 -55 24 -92
3z m65 -13 c48 -13 112 -79 187 -189 65 -97 99 -176 138 -326 29 -112 43 -281
26 -311 -9 -15 -11 -4 -12 54 0 50 -8 96 -24 145 -21 63 -46 178 -49 230 -1 9
-5 17 -9 17 -4 0 -5 6 -2 14 3 8 1 23 -5 33 -6 11 -11 13 -11 5 0 -7 -6 -10
-12 -7 -7 4 -4 -1 7 -10 20 -16 20 -17 0 -13 -19 3 -76 76 -72 91 1 4 -24 35
-56 69 -46 47 -61 58 -68 47 -6 -11 -19 -2 -58 39 -53 57 -74 69 -40 23 22
-30 19 -54 -6 -44 -19 7 -19 -4 -1 -22 12 -12 15 -12 20 0 3 8 9 15 13 15 17
0 63 -52 63 -72 0 -20 -1 -20 -26 -3 -32 21 -38 15 -22 -19 9 -20 9 -29 1 -34
-9 -5 -6 -24 8 -66 10 -33 19 -67 19 -77 0 -20 -22 -38 -27 -22 -7 21 -32 48
-38 42 -3 -4 7 -22 23 -40 16 -19 35 -52 41 -74 14 -51 15 -128 1 -120 -5 3
-10 13 -10 22 0 23 -42 155 -47 149 -3 -3 5 -45 17 -94 17 -66 21 -103 16
-137 -9 -58 -15 -54 -22 16 -11 120 -22 169 -35 169 -6 0 -5 -9 1 -20 6 -11 9
-20 7 -20 -3 0 -1 -18 3 -40 4 -22 4 -37 0 -35 -5 3 -14 37 -20 75 -6 38 -16
72 -21 76 -5 3 -8 -5 -6 -17 1 -17 -4 -24 -23 -29 -17 -4 -21 -8 -12 -14 7 -4
18 -6 25 -3 9 3 12 -22 13 -95 1 -64 6 -104 14 -111 9 -9 11 -5 7 18 -12 64
-17 170 -8 155 12 -21 24 -179 16 -213 -11 -42 -22 -32 -29 27 -4 30 -13 61
-19 70 -10 13 -12 -3 -12 -79 0 -75 -3 -98 -17 -111 -16 -16 -17 -16 -14 7 1
13 -1 58 -5 99 -4 41 -4 80 0 85 3 6 9 -19 12 -55 7 -65 7 -65 5 17 -1 68 2
83 16 92 20 12 25 66 7 77 -8 4 -9 -3 -4 -24 7 -35 -8 -50 -31 -31 -14 11 -16
9 -14 -16 3 -47 1 -55 -15 -55 -17 0 -20 -16 -5 -25 6 -3 10 -40 10 -81 0 -79
-19 -144 -43 -144 -19 0 -18 183 2 202 11 11 12 -2 9 -75 -3 -48 -1 -82 4 -75
10 16 6 228 -4 228 -5 0 -8 -9 -8 -19 0 -51 -33 -70 -49 -28 -9 21 -9 21 -16
2 -4 -11 -11 -31 -16 -44 -9 -21 -8 -23 5 -11 20 15 20 16 1 -66 -21 -86 -12
-94 13 -13 21 67 31 46 11 -24 -10 -37 -45 -84 -55 -74 -3 3 0 33 6 67 9 49 9
72 -1 106 -8 24 -16 44 -19 44 -12 0 -33 -47 -37 -85 -8 -72 -9 -79 -23 -83
-10 -4 -11 5 -7 36 4 22 10 47 13 56 3 9 2 16 -3 16 -5 0 -15 -15 -21 -34 -15
-42 -43 -57 -40 -21 1 13 6 21 10 19 4 -3 15 11 25 31 9 19 20 30 23 25 4 -6
7 3 7 20 0 27 -2 29 -17 15 -24 -22 -40 -18 -40 10 0 29 -9 31 -36 9 -18 -15
-18 -15 4 -11 19 5 23 2 20 -16 -2 -13 -9 -21 -18 -19 -8 2 -19 4 -23 5 -5 1
-14 -15 -21 -35 -8 -21 -10 -35 -5 -32 5 3 13 19 18 37 9 30 9 31 10 6 1 -29
-33 -79 -45 -67 -4 5 -2 19 4 33 13 28 15 65 6 89 -11 29 -22 7 -17 -34 5 -35
2 -43 -30 -75 -40 -40 -89 -47 -131 -20 -30 20 -50 67 -41 94 3 12 2 21 -4 21
-5 0 -12 -15 -16 -32 -9 -41 -31 -78 -48 -78 -8 0 -7 4 3 10 11 7 7 10 -17 10
-35 0 -45 -15 -15 -23 9 -3 -2 -4 -25 -4 -38 0 -44 4 -59 35 -32 68 -31 71 86
191 44 45 80 88 80 96 0 40 12 45 41 16 37 -37 86 -33 136 12 l22 19 28 -43
c36 -57 99 -119 121 -120 9 0 25 -2 36 -4 24 -5 59 9 118 47 35 23 56 47 79
92 63 120 77 217 48 313 -6 18 -8 42 -4 53 6 18 104 130 115 130 3 0 21 -5 41
-10z m-1150 -71 c32 -23 37 -50 16 -102 -7 -18 -12 -38 -11 -44 1 -7 2 -26 3
-42 0 -16 17 -53 37 -82 19 -29 41 -78 48 -108 22 -93 60 -164 96 -180 29 -12
30 -14 13 -27 -24 -18 -33 -17 -33 1 0 8 -6 15 -14 15 -8 0 -17 8 -20 18 -3 9
-3 -5 0 -32 5 -45 4 -49 -10 -37 -12 10 -14 23 -10 51 4 23 2 40 -5 44 -7 5
-11 -4 -11 -23 0 -33 -14 -41 -24 -15 -9 22 4 64 19 64 7 0 15 7 19 15 9 25
-21 17 -42 -10 -25 -32 -36 -18 -27 35 7 42 -8 57 -18 19 -9 -32 -29 -12 -23
22 3 16 9 43 12 59 3 17 12 30 20 30 8 0 14 4 14 9 0 15 -18 23 -25 11 -11
-18 -35 -11 -35 11 0 18 -2 19 -15 9 -11 -9 -19 -10 -26 -3 -13 13 -1 43 17
43 8 0 14 5 14 11 0 7 -9 9 -24 5 -34 -8 -50 15 -41 61 5 31 4 36 -6 26 -18
-18 -14 -80 5 -102 20 -21 21 -41 3 -41 -8 0 -22 -19 -31 -42 -32 -78 -42 -93
-60 -93 -15 0 -22 -13 -33 -65 -17 -82 -12 -109 9 -50 18 50 24 35 8 -21 -14
-49 -35 -67 -49 -41 -13 24 18 164 43 191 9 9 16 24 16 33 0 21 29 79 53 105
12 13 17 29 13 39 -6 15 -9 14 -26 -6 -10 -12 -31 -53 -46 -92 -14 -38 -33
-72 -41 -75 -8 -3 -12 -11 -9 -19 3 -7 0 -30 -5 -51 -32 -123 -40 -142 -59
-148 -24 -8 -27 -28 -3 -23 10 2 23 14 29 27 21 42 29 -1 24 -126 -6 -125 -2
-233 9 -233 3 0 4 54 2 121 -4 147 4 225 26 233 12 5 14 -1 9 -34 -17 -120
-17 -257 -1 -330 9 -41 23 -115 31 -165 9 -49 20 -99 25 -110 13 -32 15 -50 4
-54 -12 -5 -97 158 -89 171 3 4 1 8 -4 8 -10 0 -30 91 -37 165 -7 72 -7 260 0
288 4 16 3 27 -3 27 -17 0 -22 -40 -22 -170 0 -149 17 -263 58 -385 72 -217
98 -335 74 -335 -11 0 -75 102 -87 139 -3 11 -11 21 -16 21 -5 0 -9 9 -9 20 0
12 -6 33 -14 48 -20 41 -55 206 -65 307 l-9 90 2 -100 c1 -71 12 -151 38 -275
57 -275 67 -353 57 -444 -5 -46 -17 -91 -27 -105 -17 -26 -17 -26 -24 59 -6
86 -14 131 -42 250 -56 238 -60 276 -61 530 0 135 4 261 8 280 4 19 14 76 22
125 25 162 75 320 140 441 55 105 66 118 124 156 53 33 92 36 132 7z m430 5
c12 -15 8 -21 -30 -55 -45 -40 -75 -51 -65 -24 5 11 2 13 -11 9 -27 -11 -10
36 23 63 32 27 64 29 83 7z m34 -17 c-3 -7 11 -21 32 -32 32 -18 99 -93 90
-102 -2 -1 -25 1 -50 6 -42 7 -47 6 -47 -9 0 -10 3 -26 6 -35 5 -13 9 -14 15
-3 7 10 11 7 15 -10 7 -25 26 -25 30 0 1 9 -7 19 -20 23 -13 4 -16 8 -8 12 7
3 19 -1 27 -7 12 -10 15 -10 15 1 1 8 8 1 16 -15 15 -27 15 -40 -1 -79 -7 -17
-6 -18 13 -6 11 7 18 17 16 21 -3 4 0 8 7 8 8 0 7 5 -2 17 -13 15 -12 15 8 4
13 -6 34 -28 47 -48 25 -36 71 -63 106 -63 23 0 67 -36 57 -46 -5 -5 -16 2
-26 15 -18 24 -38 25 -109 5 -9 -2 -4 2 12 9 27 13 27 14 7 20 -11 3 -21 1
-21 -4 0 -4 -7 -5 -17 -2 -12 5 -14 3 -8 -8 5 -8 5 -11 -1 -6 -5 5 -9 12 -10
15 -6 58 -34 120 -34 78 0 -8 -9 -20 -20 -26 -11 -6 -20 -18 -20 -26 0 -53
-77 -116 -135 -110 -32 4 -73 45 -99 100 -24 51 -25 175 -2 188 9 5 16 14 16
19 0 6 -6 7 -12 3 -8 -4 -10 -3 -5 2 5 5 12 9 15 9 4 0 25 14 47 30 26 19 39
36 37 48 -2 9 1 17 7 17 6 0 8 -6 6 -13z m-208 -48 c-9 -6 -14 -15 -11 -21 5
-7 2 -8 -5 -4 -9 6 -8 13 5 27 9 11 20 17 23 13 3 -3 -2 -10 -12 -15z m498 11
c-3 -5 -14 -10 -23 -10 -15 0 -15 2 -2 10 20 13 33 13 25 0z m46 -17 c13 -15
12 -15 -8 -4 -24 12 -29 21 -14 21 5 0 15 -7 22 -17z m-506 -3 c-3 -5 0 -10 7
-10 9 -1 7 -5 -4 -14 -22 -16 -24 -38 -3 -30 18 7 19 3 3 -31 -8 -17 -24 -29
-52 -36 -23 -6 -49 -15 -58 -20 -26 -14 -23 13 3 29 14 9 19 10 14 2 -9 -14
54 -4 70 12 6 6 4 7 -8 2 -15 -5 -16 -3 -8 19 5 14 7 28 4 31 -6 6 23 56 33
56 3 0 2 -4 -1 -10z m-78 -6 c-3 -3 -12 -4 -19 -1 -8 3 -5 6 6 6 11 1 17 -2
13 -5z m1033 -74 c26 -28 45 -52 43 -54 -2 -1 3 -16 12 -32 16 -31 20 -74 7
-74 -17 0 -86 143 -74 155 3 3 -2 5 -11 5 -19 0 -22 -11 -8 -25 11 -13 51
-122 51 -140 0 -31 -21 -13 -41 33 -11 26 -27 60 -35 76 -10 22 -11 32 -3 43
9 10 9 20 1 38 -19 42 7 30 58 -25z m-934 -49 c-9 -10 -14 -20 -11 -23 6 -6
-70 -58 -85 -58 -5 0 -9 -3 -8 -7 0 -5 -2 -15 -5 -23 -3 -8 -8 -24 -11 -35 -3
-11 -4 -1 -2 23 5 48 20 72 45 72 10 0 26 7 37 16 18 14 18 15 -3 4 -14 -6
-23 -7 -23 -1 0 5 9 12 19 16 11 3 27 18 37 33 11 17 19 22 22 14 2 -7 -3 -21
-12 -31z m864 -4 c23 -52 41 -127 30 -127 -11 0 -47 51 -60 85 -7 19 -7 31 0
40 6 7 8 20 4 29 -14 36 8 13 26 -27z m-290 22 c11 -8 6 -9 -20 -4 -20 3 -30
3 -23 -2 7 -5 -4 -8 -28 -8 -47 0 -52 12 -6 18 58 7 62 7 77 -4z m30 -40 c0
-6 -4 -7 -10 -4 -5 3 -10 11 -10 16 0 6 5 7 10 4 6 -3 10 -11 10 -16z m-710
-8 c0 -12 -20 -25 -27 -18 -7 7 6 27 18 27 5 0 9 -4 9 -9z m110 -38 c0 -10
-12 -32 -28 -48 -15 -17 -32 -40 -38 -50 -6 -11 -23 -26 -37 -33 -15 -7 -26
-21 -26 -30 1 -15 2 -15 6 1 2 9 11 17 18 17 18 0 9 -26 -11 -34 -29 -11 -27
25 3 57 17 18 35 47 41 65 11 31 47 71 65 72 4 0 7 -8 7 -17z m1058 -44 c11 6
33 -45 38 -87 3 -29 0 -25 -12 18 -8 30 -20 60 -26 65 -8 7 -9 3 -4 -15 36
-123 46 -203 27 -214 -5 -3 -17 14 -27 38 -12 28 -21 40 -26 33 -5 -7 -8 -3
-8 11 0 13 4 21 9 18 11 -7 -5 80 -20 102 -9 15 -10 15 -4 -3 3 -11 8 -33 11
-50 3 -19 -1 -14 -10 15 -13 38 -13 47 -1 59 14 14 20 -1 63 -159 16 -57 13
-14 -4 63 -9 40 -23 84 -30 99 -18 36 -17 48 2 23 8 -11 18 -18 22 -16z
m-1449 -60 c-27 -70 -30 -75 -41 -55 -9 17 13 98 34 124 24 28 28 -14 7 -69z
m707 68 c8 3 14 0 14 -7 0 -6 -4 -9 -9 -5 -16 10 -20 -9 -6 -34 7 -14 23 -25
36 -26 13 -1 33 -6 43 -10 14 -6 17 -5 11 4 -5 9 -2 12 11 9 24 -4 61 -67 45
-77 -9 -6 -8 -15 3 -36 14 -27 14 -29 -7 -40 -32 -17 -44 -9 -51 33 -4 26 -19
50 -51 82 -24 24 -48 41 -51 37 -4 -4 14 -27 41 -51 51 -47 70 -98 34 -89 -26
7 -89 81 -90 107 -5 85 -5 102 -1 111 3 5 7 4 9 -2 3 -7 11 -9 19 -6z m248 -2
c3 -8 1 -15 -4 -15 -6 0 -10 7 -10 15 0 8 2 15 4 15 2 0 6 -7 10 -15z m-876
-31 c1 -1 -5 -17 -14 -35 -10 -19 -21 -41 -25 -49 -3 -8 -13 -14 -22 -12 -8 1
-17 -8 -21 -20 -9 -35 -7 -60 4 -53 6 3 10 17 10 31 0 14 4 23 9 20 5 -3 15 1
22 10 11 13 14 12 24 -13 9 -22 9 -32 -1 -48 -7 -11 -16 -40 -19 -65 -5 -42
-4 -41 23 28 l28 72 9 -32 c8 -25 6 -46 -6 -83 -20 -61 -31 -127 -20 -121 5 3
14 34 21 68 17 82 29 105 30 55 0 -21 -4 -46 -9 -55 -16 -33 -23 -74 -10 -66
9 5 10 2 5 -12 -16 -41 -24 -110 -25 -220 -2 -117 -7 -148 -21 -139 -27 17
-46 345 -21 353 6 2 11 22 11 45 1 23 7 53 15 67 8 14 14 32 14 40 0 8 -8 0
-17 -19 -42 -85 -61 -14 -26 98 5 17 4 22 -4 17 -7 -4 -12 -14 -12 -23 0 -18
-28 -42 -48 -43 -19 0 -5 88 18 117 10 13 21 40 25 60 9 51 14 56 33 41 10 -7
18 -13 20 -14z m1307 -62 c20 -84 24 -167 8 -183 -17 -17 -39 25 -58 116 -9
44 -21 90 -26 102 -7 20 -6 21 14 14 18 -7 23 -21 34 -95 7 -47 17 -94 22
-104 16 -26 14 -1 -9 116 -23 116 -24 130 -11 117 5 -6 16 -43 26 -83z m-93
43 c11 -14 10 -25 -1 -25 -5 0 -12 8 -15 18 -3 9 -3 -14 0 -52 3 -38 10 -79
15 -90 5 -13 6 1 3 40 -4 37 -2 64 4 68 13 8 27 -127 15 -149 -9 -15 -11 -14
-25 7 -28 43 -56 143 -46 162 6 10 8 26 5 36 -4 17 -2 17 17 7 11 -7 24 -16
28 -22z m-911 -40 c-42 -46 -50 -72 -28 -94 10 -10 9 -11 -5 -6 -9 4 -18 14
-20 23 -4 17 23 106 36 119 4 4 4 0 0 -10 -9 -23 12 -22 33 3 9 11 19 17 21
15 3 -3 -14 -25 -37 -50z m514 10 c19 -20 35 -41 35 -47 0 -6 -11 0 -23 14
-13 14 -33 29 -45 32 -24 8 -38 36 -17 36 8 0 30 -16 50 -35z m-466 -8 c-2 -1
-13 -9 -24 -17 -19 -14 -19 -14 -6 3 7 9 18 17 24 17 6 0 8 -1 6 -3z m-14 -47
c-14 -16 -20 -17 -27 -8 -5 9 -8 6 -8 -9 0 -13 -4 -23 -10 -23 -5 0 -10 6 -10
13 0 20 17 40 28 33 5 -3 15 1 22 9 7 9 15 13 18 10 3 -3 -3 -14 -13 -25z
m-465 -67 c-10 -45 -34 -84 -44 -72 -2 2 -6 33 -9 69 -3 39 -2 55 3 40 7 -21
8 -22 9 -4 2 31 22 47 38 31 11 -11 11 -24 3 -64z m1514 -288 c2 -257 -4 -297
-58 -403 -25 -49 -72 -100 -82 -90 -3 4 2 20 10 37 49 94 72 350 43 481 -8 34
-17 188 -10 173 2 -7 11 -13 19 -13 9 0 15 -13 16 -37 0 -21 3 -83 6 -138 7
-125 5 -278 -2 -327 -4 -21 -2 -38 3 -38 4 0 12 21 15 48 11 70 22 251 15 247
-7 -5 -32 246 -25 253 4 3 6 -1 7 -9 0 -8 7 -63 14 -124 l14 -110 -5 105 c-3
58 -9 123 -14 145 -5 22 -9 56 -9 75 0 28 4 20 21 -40 17 -61 21 -105 22 -235z
m72 105 c4 -36 7 -73 8 -82 0 -10 4 -19 8 -19 4 -1 14 -2 20 -3 7 0 18 -29 26
-66 17 -88 26 -369 15 -453 -5 -37 -6 -70 -2 -72 13 -9 20 85 19 243 -1 86 -3
175 -5 197 -5 70 -16 149 -22 157 -6 11 -16 148 -10 148 18 0 57 -357 57 -525
0 -122 -23 -269 -50 -326 -8 -16 -36 -154 -44 -219 -3 -19 -5 -37 -5 -40 -1
-3 -8 9 -17 25 -21 40 -21 151 0 240 22 90 35 250 37 445 2 128 4 144 10 95 8
-59 4 -326 -6 -395 -5 -33 -5 -34 7 -10 23 48 13 540 -11 540 -4 0 -5 -16 -3
-35 2 -19 0 -35 -4 -35 -5 0 -9 -19 -10 -43 -2 -112 -15 -260 -30 -331 -18
-91 -64 -193 -100 -227 l-26 -24 7 30 c4 17 15 64 25 105 48 203 71 564 47
745 -5 37 -5 54 1 45 37 -61 51 -428 20 -530 -23 -75 -34 -170 -19 -170 6 0
11 19 11 45 0 25 9 80 20 123 29 114 31 235 9 408 -10 82 -18 158 -18 169 1
33 28 -85 35 -155z m-240 115 c15 -12 30 -117 34 -240 4 -122 4 -137 -4 -168
-12 -51 -24 -27 -29 61 -3 48 -8 98 -11 112 -4 14 -8 59 -10 100 -3 41 -9 88
-15 103 -6 16 -8 40 -5 54 6 24 8 24 17 7 6 -11 16 -23 23 -29z m-1330 -68
c-25 -107 -31 -318 -11 -411 9 -43 14 -80 12 -83 -10 -9 -66 124 -79 187 -13
63 -14 90 -8 248 2 40 0 75 -3 79 -10 10 13 33 33 33 16 0 17 -3 3 -41 -15
-46 -17 -279 -2 -279 5 0 9 30 9 66 0 36 9 100 19 142 10 43 22 90 25 106 4
15 9 26 12 23 3 -2 -2 -34 -10 -70z m1383 4 c12 -77 13 -202 1 -241 -5 -17 -7
-5 -5 35 3 65 -9 203 -20 248 -4 15 -3 27 2 27 6 0 15 -31 22 -69z m-1419 -36
c-19 -59 -19 -59 -14 -15 6 52 27 113 31 90 2 -8 -6 -42 -17 -75z m312 56
c-16 -11 -23 -46 -27 -126 -3 -54 -1 -70 4 -50 5 17 10 50 11 75 2 41 2 43 10
17 10 -33 -4 -135 -20 -151 -16 -16 -40 20 -40 60 0 43 20 136 31 149 5 5 9
20 9 33 0 21 2 23 15 12 9 -7 12 -16 7 -19z m-76 -3 c-13 -65 -14 -88 -6 -93
6 -4 10 13 10 39 0 25 5 46 10 46 13 0 13 -21 -1 -76 -10 -40 -19 -49 -41 -45
-11 1 -10 -13 1 -24 5 -6 6 -32 2 -60 -5 -27 -7 -81 -5 -120 2 -38 3 -80 4
-92 0 -13 4 -23 8 -23 5 0 7 36 4 79 -4 71 8 238 14 201 1 -8 5 -32 9 -52 4
-28 11 -38 24 -38 16 0 17 -8 13 -80 -3 -55 -1 -80 7 -80 7 0 11 30 11 90 0
53 4 90 10 90 6 0 10 -4 10 -9 0 -5 7 -17 16 -26 14 -13 14 -20 4 -45 -8 -20
-11 -70 -9 -153 4 -130 -4 -155 -32 -96 -17 36 -39 172 -39 246 0 26 -5 43
-12 43 -8 0 -10 -32 -6 -117 6 -126 1 -165 -20 -141 -28 35 -43 132 -40 270 2
76 6 138 9 138 3 0 9 29 12 65 4 36 9 70 12 75 12 19 25 10 21 -12z m1084 -92
c11 -69 5 -136 -11 -136 -5 0 -11 6 -13 13 -2 6 -12 40 -22 75 -9 34 -21 59
-25 55 -5 -5 0 -35 10 -69 25 -77 35 -147 27 -179 -13 -50 -37 -8 -61 105 -8
36 -17 73 -20 83 -4 9 -3 17 3 17 5 0 17 -34 27 -75 9 -41 21 -78 27 -81 6 -4
8 1 5 12 -17 59 -36 174 -33 206 2 37 16 66 16 34 0 -9 7 -19 15 -22 8 -4 15
-11 15 -16 0 -19 32 -119 36 -115 3 3 -2 35 -11 71 -8 37 -15 79 -15 94 1 45
18 4 30 -72z m-290 54 c0 -5 -2 -10 -4 -10 -3 0 -8 5 -11 10 -3 6 -1 10 4 10
6 0 11 -4 11 -10z m-180 -12 c0 -28 -17 -41 -36 -28 -14 8 -15 10 -2 6 10 -3
18 2 21 15 6 21 17 26 17 7z m94 -20 c-7 -26 -33 -78 -38 -78 -1 0 4 23 13 50
8 28 19 50 24 50 4 0 5 -10 1 -22z m393 -10 c-3 -7 -5 -2 -5 12 0 14 2 19 5
13 2 -7 2 -19 0 -25z m-393 -67 c-7 -30 -16 -56 -19 -59 -3 -3 2 -16 11 -30
13 -20 15 -42 10 -125 -11 -171 -35 -235 -98 -268 -40 -20 -48 -17 -23 11 21
24 62 141 70 202 4 29 10 69 15 88 19 81 20 90 12 90 -4 0 -14 -23 -21 -51
-24 -92 -86 -203 -131 -233 -22 -14 -40 -24 -40 -21 0 6 26 62 111 241 16 34
29 69 29 77 0 9 5 19 10 22 6 3 10 4 10 1 0 -16 -46 -138 -71 -187 -15 -31
-25 -59 -22 -62 7 -7 54 89 73 148 7 22 16 44 21 50 5 5 9 18 9 28 0 17 51
139 56 134 1 -1 -4 -26 -12 -56z m-351 -22 c12 -1 28 -1 36 0 7 2 10 -2 6 -8
-4 -7 3 -11 17 -11 16 0 19 3 10 8 -9 6 -6 12 13 20 15 7 25 8 25 2 0 -6 -7
-10 -15 -10 -9 0 -12 -6 -9 -15 4 -10 0 -15 -15 -15 -12 0 -21 -5 -21 -11 0
-5 5 -7 10 -4 12 7 12 -2 1 -30 -17 -41 35 -61 72 -28 18 17 18 17 6 -10 -7
-15 -16 -27 -21 -27 -5 0 -6 -6 -2 -12 4 -7 -2 -4 -14 6 -12 11 -22 14 -22 9
0 -6 7 -16 15 -23 14 -12 14 -15 0 -30 -8 -9 -13 -19 -11 -21 2 -2 -2 -9 -9
-16 -10 -9 -17 -8 -31 8 -9 10 -13 19 -7 19 5 0 9 10 7 23 -1 12 -3 25 -3 30
-1 4 -6 7 -12 7 -8 0 -8 -5 1 -15 10 -12 10 -15 0 -15 -7 0 -10 -7 -6 -15 3
-8 0 -15 -7 -15 -12 -1 70 -82 101 -99 9 -5 14 -13 10 -16 -9 -9 -81 46 -125
95 -22 24 -32 30 -33 19 0 -19 60 -76 121 -114 22 -15 39 -29 36 -32 -6 -5
-92 51 -102 67 -3 6 -10 10 -16 10 -22 0 -5 -19 51 -54 33 -21 57 -42 55 -47
-3 -4 5 -17 17 -28 12 -12 18 -21 13 -21 -5 0 -24 14 -42 32 -18 17 -35 29
-38 26 -5 -4 41 -48 93 -89 14 -11 16 -39 3 -39 -5 0 -26 19 -45 42 -20 23
-39 38 -43 35 -4 -4 -2 -12 4 -18 6 -6 9 -18 6 -25 -3 -8 0 -14 7 -14 6 0 8 5
4 13 -12 18 61 -45 75 -65 9 -15 8 -18 -4 -18 -8 0 -15 3 -15 8 -1 4 -12 20
-25 37 l-24 30 2 -30 c2 -24 -2 -30 -18 -30 -15 0 -20 7 -20 27 -1 15 -9 36
-20 47 -17 19 -17 21 -1 21 9 0 15 4 11 10 -3 5 -11 8 -18 6 -7 -1 -9 -1 -5 1
4 3 3 12 -2 21 -5 9 -11 24 -13 33 -4 12 -16 16 -46 15 -23 -1 -41 -4 -42 -6
-1 -11 21 -59 30 -64 12 -8 3 -36 -11 -36 -12 0 -47 41 -48 56 0 6 -7 17 -15
24 -30 25 -70 126 -85 212 -24 132 -21 211 5 168 9 -15 71 -6 89 13 9 8 16 23
16 32 0 11 11 5 35 -20 20 -19 46 -36 58 -36z m204 29 c1 -36 -41 -89 -89
-114 -34 -18 -38 -18 -38 1 0 14 108 143 121 145 3 0 6 -15 6 -32z m412 -100
c24 -116 29 -234 12 -266 -7 -13 -15 -22 -17 -19 -2 2 -9 42 -14 88 -15 120
-19 145 -31 196 -8 30 -8 48 -2 54 11 11 27 -62 39 -179 4 -34 10 -62 14 -62
8 0 -8 139 -26 218 -17 75 -18 90 -4 76 5 -5 18 -53 29 -106z m-869 65 c0 -21
3 -49 6 -63 5 -24 5 -24 -10 -6 -18 22 -22 106 -6 106 6 0 10 -17 10 -37z
m690 -25 c1 -29 3 -112 4 -185 0 -73 5 -128 9 -124 5 5 7 65 5 135 -2 69 0
126 4 126 14 0 21 -75 16 -184 -4 -86 -10 -121 -27 -158 -34 -72 -88 -111 -59
-42 8 19 13 97 15 217 2 157 14 267 29 267 2 0 4 -24 4 -52z m-216 -10 c-8
-23 -29 -64 -46 -90 -17 -27 -29 -51 -26 -53 8 -8 64 79 83 128 18 47 30 58
38 35 7 -22 -64 -145 -108 -188 -67 -66 -81 -51 -36 40 72 149 130 225 95 128z
m334 -89 c19 -143 4 -299 -28 -299 -4 0 -10 35 -14 78 -3 42 -10 122 -16 177
-8 84 -8 102 5 114 13 14 15 13 16 -9 1 -14 5 -74 9 -135 l7 -110 1 117 c1 64
-3 129 -8 143 -8 20 -7 26 2 23 8 -3 18 -42 26 -99z m-171 -31 c-2 -51 -9
-104 -14 -118 -7 -17 -9 6 -6 80 5 109 8 130 19 130 4 0 4 -42 1 -92z m-587
-133 c0 -16 5 -37 11 -45 8 -12 9 -10 4 9 -10 33 9 19 25 -19 10 -24 10 -37 1
-57 -8 -17 -15 -23 -22 -16 -20 20 -51 130 -55 197 l-4 71 20 -55 c10 -30 19
-68 20 -85z m380 49 c0 -3 -8 -16 -19 -29 -13 -17 -21 -21 -29 -13 -8 8 -5 16
11 29 22 19 37 24 37 13z m203 -134 c-5 -53 -8 -60 -15 -39 -9 22 -3 83 9 102
10 16 11 1 6 -63z m-395 14 c28 -19 30 -54 2 -54 -11 0 -20 5 -20 11 0 6 7 9
15 5 8 -3 15 -1 15 4 0 5 -10 10 -22 12 -13 2 -24 11 -26 21 -4 21 7 22 36 1z
m211 -23 c-31 -31 -31 -32 -13 -59 17 -27 17 -27 -3 -9 -22 19 -28 67 -9 67 6
0 20 9 29 21 10 11 21 19 23 16 3 -2 -9 -19 -27 -36z m32 -24 c-10 -9 -11 -8
-5 6 3 10 9 15 12 12 3 -3 0 -11 -7 -18z m-21 -12 c0 -8 -4 -15 -10 -15 -5 0
-7 7 -4 15 4 8 8 15 10 15 2 0 4 -7 4 -15z m-178 -29 c19 -23 24 -41 9 -32 -5
4 -11 0 -14 -6 -5 -14 -46 29 -47 48 0 18 34 12 52 -10z m322 8 c10 -27 7 -54
-8 -54 -15 0 -30 45 -21 60 9 15 22 12 29 -6z m-354 -56 c0 -4 -5 -8 -10 -8
-6 0 -4 -13 5 -30 19 -36 20 -62 2 -35 -27 40 -47 103 -34 108 12 5 37 -19 37
-35z m310 23 c0 -6 -4 -13 -10 -16 -5 -3 -10 1 -10 9 0 9 5 16 10 16 6 0 10
-4 10 -9z m-105 -48 c-3 -23 -1 -33 4 -24 6 9 11 10 15 2 4 -6 2 -11 -4 -11
-7 0 -9 -9 -5 -22 6 -21 5 -22 -8 -5 -23 27 -29 20 -12 -14 19 -36 14 -59 -15
-59 -13 0 -25 11 -35 33 l-14 32 2 -30 c2 -24 -2 -29 -15 -27 -10 2 -18 -1
-18 -6 0 -14 28 -23 35 -12 3 5 16 4 31 -2 20 -10 27 -9 34 3 14 22 32 -3 75
-101 54 -124 57 -130 68 -130 6 0 6 5 0 13 -5 6 -22 46 -38 87 -15 41 -41 94
-56 118 -30 44 -37 72 -19 72 6 0 10 -9 10 -20 0 -11 4 -20 9 -20 5 0 16 -17
25 -37 9 -21 26 -53 38 -71 33 -53 89 -212 82 -234 -6 -19 -6 -19 -26 -1 -22
19 -121 217 -133 266 -4 15 -11 27 -16 27 -15 0 -11 -13 32 -106 60 -129 80
-189 66 -203 -32 -32 -75 10 -98 94 -23 84 -72 215 -80 215 -11 0 -11 -6 0
-28 16 -29 50 -146 56 -193 4 -34 0 -27 -19 34 -13 42 -28 83 -34 90 -5 6 -12
23 -15 37 -3 16 -5 10 -6 -17 0 -24 3 -43 8 -43 10 0 38 -69 47 -117 4 -18 10
-33 15 -33 5 0 9 -4 9 -10 0 -5 -5 -10 -10 -10 -16 0 -60 100 -60 135 0 18 -4
25 -9 20 -9 -10 -1 -79 14 -117 4 -10 3 -18 -3 -18 -20 0 -58 129 -72 249 -6
47 -13 93 -15 101 -4 12 2 16 22 15 22 0 28 5 33 31 11 50 19 57 40 32 22 -28
19 -34 -9 -18 -15 7 -21 8 -21 0 0 -6 14 -16 30 -21 17 -6 30 -17 30 -25 0 -8
5 -14 11 -14 5 0 7 -4 4 -10 -3 -5 -1 -10 4 -10 15 0 14 6 -5 35 -9 14 -12 29
-8 37 13 20 14 41 3 54 -7 8 -6 14 3 17 25 10 28 7 23 -30z m69 24 c-3 -8 -11
-14 -19 -14 -21 0 -19 15 3 20 9 3 18 5 19 6 1 0 0 -5 -3 -12z m-204 -37 c24
-28 25 -34 5 -50 -11 -9 -18 -10 -28 -1 -8 6 -18 7 -22 3 -5 -4 -5 -2 -2 4 4
6 3 25 -2 41 -7 25 -6 29 10 28 10 -1 28 -12 39 -25z m270 10 c0 -11 -4 -20
-9 -20 -5 0 -7 9 -4 20 3 11 7 20 9 20 2 0 4 -9 4 -20z m30 11 c0 -6 -4 -12
-8 -15 -5 -3 -9 1 -9 9 0 8 4 15 9 15 4 0 8 -4 8 -9z m-62 -31 c-11 -34 -28
-49 -28 -26 0 9 4 16 9 16 5 0 11 9 14 20 3 11 8 20 11 20 3 0 0 -14 -6 -30z
m93 13 c13 -16 12 -17 -3 -4 -17 13 -22 21 -14 21 2 0 10 -8 17 -17z m-131 -8
c0 -8 -4 -15 -10 -15 -5 0 -10 7 -10 15 0 8 5 15 10 15 6 0 10 -7 10 -15z m81
-32 c-8 -15 -10 -15 -11 -2 0 17 10 32 18 25 2 -3 -1 -13 -7 -23z m-30 -1
c-12 -22 -3 -62 13 -62 6 0 45 -38 86 -83 41 -46 128 -126 194 -178 120 -95
159 -130 152 -136 -2 -2 -41 16 -87 40 -221 115 -295 169 -353 256 -48 73 -89
152 -81 159 3 3 6 3 8 1 1 -2 9 -16 17 -31 23 -40 88 -117 155 -181 66 -63 95
-84 95 -67 0 5 -4 10 -9 10 -14 0 -139 125 -188 187 l-42 53 22 25 c26 29 31
31 18 7z m90 -14 c11 -21 11 -22 -4 -9 -10 7 -17 17 -17 22 0 15 9 10 21 -13z
m-426 -14 c8 -10 15 -23 15 -29 0 -5 -7 1 -16 13 -8 12 -21 22 -27 22 -7 0 -6
-4 3 -10 8 -5 11 -12 7 -17 -9 -8 -27 15 -27 34 0 17 28 9 45 -13z m395 17 c0
-27 362 -352 376 -338 3 3 -17 22 -43 43 -65 52 -133 117 -133 128 0 5 9 1 19
-8 15 -13 20 -14 24 -4 3 8 6 6 6 -6 1 -10 11 -27 24 -38 12 -11 38 -34 57
-52 19 -17 50 -42 68 -55 18 -13 31 -26 28 -29 -3 -2 -12 1 -21 8 -9 7 -18 10
-21 7 -6 -6 91 -82 104 -82 4 0 14 -5 22 -12 66 -53 79 -66 74 -74 -3 -5 1 -9
8 -9 17 0 63 -49 54 -57 -3 -4 -16 3 -29 15 -12 12 -62 40 -111 62 -49 23 -98
52 -108 66 -11 13 -61 57 -111 98 -139 112 -313 281 -299 290 7 4 12 1 12 -8
0 -9 3 -16 8 -16 4 0 37 -28 72 -61 95 -90 166 -151 245 -212 90 -68 224 -157
239 -157 6 0 -4 9 -22 20 -126 77 -392 292 -461 374 -37 43 -82 86 -91 86 -6
0 -10 7 -10 15 0 8 5 15 10 15 6 0 10 -4 10 -9z m-24 -38 c-7 -7 -26 7 -26 19
0 6 6 6 15 -2 9 -7 13 -15 11 -17z m-401 -25 c3 -3 -1 -10 -9 -17 -11 -9 -15
-7 -19 8 -4 18 13 24 28 9z m540 -18 c3 -6 -1 -7 -9 -4 -18 7 -21 14 -7 14 6
0 13 -4 16 -10z m-575 -14 c0 -3 -4 -8 -10 -11 -5 -3 -10 -1 -10 4 0 6 5 11
10 11 6 0 10 -2 10 -4z m105 -34 c-8 -8 -25 10 -25 26 0 13 2 13 14 -4 8 -10
13 -21 11 -22z m-75 -18 c0 -14 -6 -24 -14 -24 -15 0 -21 -52 -25 -215 -1 -38
-4 -72 -7 -74 -12 -12 -16 17 -17 111 -1 76 3 117 17 158 10 30 20 61 22 68 6
21 24 3 24 -24z m-59 -36 c-9 -38 -17 -54 -19 -41 -4 26 16 103 27 103 4 0 1
-28 -8 -62z m665 48 c20 -21 17 -28 -6 -14 -11 7 -20 16 -20 20 0 12 10 9 26
-6z m-556 -15 c0 -11 -5 -23 -10 -26 -7 -4 -8 -33 -3 -83 15 -153 5 -225 -26
-188 -29 35 -43 252 -16 262 8 4 15 12 15 20 0 8 6 11 15 8 11 -5 13 -2 9 10
-3 9 -1 16 5 16 6 0 11 -9 11 -19z m35 -109 c8 -97 14 -132 24 -132 5 0 4 23
-1 51 -5 29 -6 55 -1 60 5 5 10 1 11 -9 17 -122 8 -177 -22 -137 -8 11 -18 40
-20 65 -3 25 -10 74 -15 109 -6 36 -8 68 -5 73 13 20 23 -8 29 -80z m370 -22
c3 -5 1 -10 -4 -10 -6 0 -11 5 -11 10 0 6 2 10 4 10 3 0 8 -4 11 -10z m87 -66
c-1 -20 -20 -12 -42 18 l-24 32 33 -20 c18 -12 33 -25 33 -30z m67 -104 c29
-50 49 -95 45 -101 -4 -7 -3 -9 3 -6 11 7 53 -71 53 -99 -1 -16 -4 -15 -23 8
-12 15 -31 44 -42 65 -11 21 -37 67 -58 102 -21 35 -36 65 -33 68 2 3 12 -9
21 -27 9 -18 19 -29 22 -26 3 3 -6 26 -21 52 -14 25 -26 48 -26 50 0 13 13 -6
59 -86z m15 65 c11 -8 20 -26 22 -40 3 -25 1 -24 -27 11 -16 20 -29 38 -29 40
0 8 16 3 34 -11z m-428 -18 c6 2 17 -3 24 -12 7 -8 19 -15 27 -15 16 0 11 -65
-13 -159 -17 -66 -26 -78 -73 -91 -54 -15 -101 -12 -149 10 -26 12 -54 17 -68
14 -31 -8 -30 0 6 72 35 70 62 104 84 104 10 0 18 13 22 37 l7 36 13 -25 c7
-14 20 -28 28 -31 19 -8 46 29 46 62 0 22 1 23 18 9 9 -9 22 -14 28 -11z m104
-33 c0 -8 -4 -14 -10 -14 -5 0 -10 9 -10 21 0 11 5 17 10 14 6 -3 10 -13 10
-21z m80 -10 c0 -8 -5 -12 -10 -9 -6 4 -8 11 -5 16 9 14 15 11 15 -7z m300 -5
c0 -6 -4 -7 -10 -4 -5 3 -10 11 -10 16 0 6 5 7 10 4 6 -3 10 -11 10 -16z
m-705 -43 c-39 -52 -75 -127 -75 -157 0 -16 -5 -29 -10 -29 -6 0 -15 -10 -21
-22 -9 -22 -17 -23 -116 -26 -66 -1 -110 -6 -114 -13 -4 -7 -23 -13 -44 -15
-35 -3 -37 -2 -31 22 4 13 2 33 -4 44 -5 10 -7 21 -3 23 15 7 48 -18 48 -37 0
-11 6 -21 13 -24 11 -3 12 0 3 17 -10 18 -9 22 5 28 10 4 22 0 29 -10 13 -18
31 -24 20 -8 -3 5 -1 12 4 15 5 4 12 2 16 -4 3 -5 11 -10 16 -10 6 0 7 5 4 10
-9 14 18 12 34 -2 11 -11 13 -10 8 3 -4 13 -1 16 15 11 11 -3 24 1 28 8 7 11
11 11 24 1 11 -9 16 -10 16 -2 0 6 -6 11 -12 11 -8 1 -6 6 5 14 10 8 26 13 35
11 9 -1 11 0 5 2 -15 5 -15 6 -7 27 3 9 13 16 21 16 8 0 12 4 9 9 -4 5 3 30
14 56 15 34 24 45 35 41 11 -4 19 3 26 21 8 21 12 24 19 13 5 -9 0 -24 -15
-44z m765 23 c0 -5 -4 -9 -10 -9 -5 0 -10 7 -10 16 0 8 5 12 10 9 6 -3 10 -10
10 -16z m-430 -4 c0 -8 -7 -15 -15 -15 -8 0 -15 7 -15 15 0 8 7 15 15 15 8 0
15 -7 15 -15z m21 -28 c-6 -14 -13 -59 -17 -99 -6 -69 -5 -76 20 -112 14 -21
26 -34 26 -27 0 6 5 11 10 11 6 0 10 -7 10 -15 0 -8 5 -15 10 -15 6 0 10 5 10
11 0 6 7 8 16 5 8 -3 23 1 32 10 11 12 17 13 20 5 3 -9 7 -9 18 -1 15 13 34 5
34 -15 0 -7 7 -15 15 -19 8 -3 15 -12 15 -20 0 -13 -4 -14 -25 -4 -14 6 -25
20 -25 30 0 11 -5 16 -11 12 -6 -3 -8 -17 -5 -30 5 -19 2 -24 -12 -24 -10 0
-21 3 -25 6 -3 4 -30 7 -59 9 -29 1 -74 6 -99 10 -41 6 -54 3 -105 -23 -33
-17 -75 -36 -95 -43 -19 -6 -40 -21 -45 -33 -12 -28 -37 -27 -39 3 -1 13 -9
29 -18 36 -22 16 -22 37 1 34 25 -4 95 11 110 23 9 8 20 8 37 0 14 -7 25 -8
25 -3 0 5 -8 12 -17 15 -15 6 -15 8 -3 16 9 6 19 5 24 0 6 -6 17 -10 25 -10
11 0 9 6 -9 19 -23 18 -26 18 -60 2 -25 -12 -53 -16 -102 -13 -66 4 -68 5 -69
30 0 15 -3 21 -6 14 -8 -19 -63 -46 -63 -30 0 21 15 38 36 42 10 3 27 7 37 11
13 5 17 2 17 -14 0 -12 5 -21 11 -21 6 0 8 9 4 23 -5 19 -3 18 19 -8 15 -17
26 -24 26 -16 0 11 5 9 22 -5 12 -10 18 -13 14 -6 -9 15 20 17 30 1 3 -6 9 -7
13 -3 10 14 49 34 66 34 8 0 28 8 46 19 17 10 39 16 50 14 10 -3 19 -1 19 5 0
6 -11 12 -25 14 -18 2 -22 7 -16 17 7 11 13 12 23 3 14 -11 24 19 44 131 4 23
10 35 16 29 5 -5 5 -19 -1 -35z m350 27 c18 -6 23 -54 7 -54 -6 0 -8 9 -5 20
3 12 0 20 -8 20 -7 0 -19 7 -26 17 -12 14 -12 15 1 10 8 -4 22 -10 31 -13z
m104 -4 c3 -5 2 -10 -4 -10 -5 0 -13 5 -16 10 -3 6 -2 10 4 10 5 0 13 -4 16
-10z m124 -80 c40 -44 78 -80 84 -80 6 0 -15 27 -48 60 -32 33 -56 62 -53 65
8 8 138 -135 138 -151 0 -42 -81 18 -162 121 -47 60 -50 65 -41 65 5 0 42 -36
82 -80z m-87 -22 c34 -49 64 -69 33 -22 -34 52 1 42 43 -12 64 -82 75 -124 34
-124 -23 0 -124 109 -118 127 4 9 1 11 -6 7 -7 -5 -9 -2 -5 9 3 9 -1 21 -11
29 -16 12 -16 11 -2 -7 14 -19 14 -19 -3 -6 -10 8 -16 20 -13 27 3 7 -2 18
-10 24 -8 7 -14 20 -14 29 0 18 17 0 72 -81z m-522 67 c0 -8 -7 -15 -15 -15
-16 0 -20 12 -8 23 11 12 23 8 23 -8z m518 -15 c7 -12 17 -18 22 -15 6 3 7 -1
4 -9 -7 -19 -24 -21 -24 -4 0 6 -7 20 -17 30 -9 10 -12 18 -7 18 5 0 15 -9 22
-20z m-92 -17 c-3 -8 -2 -12 3 -9 12 8 91 -110 91 -134 0 -11 -7 -20 -14 -20
-32 0 -122 156 -102 176 14 15 29 6 22 -13z m-436 -8 c0 -8 -4 -15 -10 -15 -5
0 -10 7 -10 15 0 8 5 15 10 15 6 0 10 -7 10 -15z m720 -20 c7 -8 16 -13 20
-10 12 8 41 -6 34 -16 -3 -5 2 -9 10 -9 9 0 16 5 16 12 0 6 3 8 6 5 4 -4 1
-13 -6 -22 -11 -13 -17 -12 -52 7 -42 24 -67 48 -50 48 5 0 15 -7 22 -15z
m-730 -20 c0 -8 -4 -15 -10 -15 -5 0 -10 7 -10 15 0 8 5 15 10 15 6 0 10 -7
10 -15z m-624 -55 c8 0 14 -4 14 -8 0 -5 -13 -7 -30 -4 -16 2 -30 7 -30 11 0
4 -16 5 -35 3 -23 -3 -35 0 -35 8 0 7 -7 10 -17 6 -15 -5 -15 -4 1 9 26 19 36
19 36 -2 0 -15 15 -10 15 5 0 4 4 13 9 21 7 10 14 6 33 -18 13 -17 31 -31 39
-31z m-136 -20 c0 -5 -4 -10 -10 -10 -5 0 -10 5 -10 10 0 6 5 10 10 10 6 0 10
-4 10 -10z m30 -40 c0 -5 -8 -10 -17 -10 -9 0 -25 -7 -35 -17 -26 -23 -34 -9
-9 16 22 22 61 29 61 11z m430 -144 c0 -2 -6 -18 -14 -36 -11 -27 -14 -29 -18
-13 -6 22 8 53 22 53 6 0 10 -2 10 -4z"/>
<path d="M1635 2265 c1 -14 5 -28 9 -32 3 -3 1 -12 -6 -20 -8 -10 -8 -17 0
-25 19 -19 14 -49 -8 -55 -15 -4 -17 -9 -10 -23 15 -29 12 -58 -7 -63 -13 -4
-12 -5 5 -6 28 -1 36 17 23 51 -8 21 -7 28 6 32 12 5 14 16 10 46 -3 22 -1 40
4 40 14 0 10 26 -6 40 -12 10 -13 16 -4 26 9 11 8 14 -4 14 -10 0 -14 -8 -12
-25z"/>
<path d="M1083 1985 c-23 -11 -42 -24 -43 -28 0 -5 4 -6 8 -3 15 9 83 -14 76
-26 -4 -6 1 -6 15 1 11 7 21 17 21 23 0 6 -6 5 -17 -3 -15 -13 -15 -12 -5 7 8
16 8 25 -1 35 -10 13 -18 12 -54 -6z m32 -5 c-10 -11 -25 -20 -34 -19 -11 0
-9 3 5 9 12 5 25 13 29 19 3 6 9 11 12 11 3 0 -2 -9 -12 -20z m25 -4 c0 -2 -8
-10 -17 -17 -16 -13 -17 -12 -4 4 13 16 21 21 21 13z"/>
<path d="M960 1860 c0 -5 4 -10 9 -10 6 0 13 5 16 10 3 6 -1 10 -9 10 -9 0
-16 -4 -16 -10z"/>
<path d="M1180 1814 c0 -8 5 -12 10 -9 6 3 10 10 10 16 0 5 -4 9 -10 9 -5 0
-10 -7 -10 -16z"/>
<path d="M762 1749 c2 -6 8 -10 13 -10 5 0 11 4 13 10 2 6 -4 11 -13 11 -9 0
-15 -5 -13 -11z"/>
<path d="M1113 1735 c0 -8 4 -15 9 -15 4 0 8 4 8 9 0 6 -4 12 -8 15 -5 3 -9
-1 -9 -9z"/>
<path d="M1043 1728 c2 -7 10 -13 17 -13 7 0 15 6 18 13 2 7 -5 12 -18 12 -13
0 -20 -5 -17 -12z"/>
<path d="M1095 1690 c-3 -5 -1 -10 4 -10 6 0 11 5 11 10 0 6 -2 10 -4 10 -3 0
-8 -4 -11 -10z"/>
<path d="M497 2389 c-9 -6 -22 -7 -28 -3 -16 10 -69 -46 -91 -96 -10 -24 -26
-75 -34 -113 -17 -82 -32 -116 -44 -97 -10 16 -44 -90 -55 -168 -4 -28 -11
-49 -16 -46 -5 3 -9 -4 -9 -14 0 -11 -11 -62 -24 -113 -13 -52 -27 -121 -30
-154 -16 -151 -4 -576 14 -505 3 14 3 41 -2 60 -4 19 -7 58 -6 85 l1 50 7 -60
c5 -33 11 -82 14 -108 9 -72 43 -238 55 -267 9 -21 10 -18 5 20 -3 25 -14 90
-25 145 -10 55 -21 120 -24 145 -2 25 -10 72 -17 105 -22 111 -16 263 16 430
3 11 5 23 5 28 1 4 4 7 9 7 4 0 8 -57 10 -128 2 -95 0 -123 -8 -112 -9 12 -10
12 -6 -5 2 -11 8 -54 12 -95 6 -60 9 -69 15 -45 l7 30 1 -35 c1 -41 49 -195
50 -164 1 11 -6 43 -14 70 -26 84 -45 234 -45 360 0 66 -4 124 -8 130 -11 12
-3 106 8 99 8 -5 21 43 35 130 9 55 26 96 36 89 5 -3 12 2 15 10 3 9 11 13 17
9 6 -4 8 0 4 9 -3 9 -2 31 3 50 5 18 12 46 15 62 3 15 9 26 12 22 6 -6 42 59
43 78 0 5 12 25 26 44 22 28 23 32 7 24 -10 -6 -28 -27 -38 -46 -11 -20 -23
-36 -28 -36 -9 0 18 45 47 78 11 12 27 20 35 17 9 -2 25 2 35 10 23 18 18 28
-7 14z m-116 -156 c-12 -20 -14 -14 -5 12 4 9 9 14 11 11 3 -2 0 -13 -6 -23z
m-144 -835 c-2 -13 -4 -5 -4 17 -1 22 1 32 4 23 2 -10 2 -28 0 -40z"/>
<path d="M529 2374 c-7 -8 -25 -22 -39 -29 -17 -9 -41 -41 -64 -84 -20 -39
-41 -73 -46 -76 -6 -3 -10 -16 -10 -27 0 -17 7 -12 31 22 17 24 37 57 45 74
17 39 45 74 63 78 20 5 60 41 55 50 -8 12 -20 9 -35 -8z"/>
<path d="M551 2323 c-1 -7 -9 -13 -18 -13 -14 0 -15 -2 -4 -9 17 -11 -3 -25
-25 -17 -10 4 -14 1 -12 -6 3 -7 12 -14 21 -16 18 -4 51 41 44 60 -4 10 -6 10
-6 1z"/>
<path d="M590 2053 c1 -28 60 -60 60 -33 0 5 -7 7 -16 3 -10 -4 -17 1 -21 16
-5 19 -23 31 -23 14z"/>
<path d="M213 1560 c0 -36 2 -50 4 -32 2 17 2 47 0 65 -2 17 -4 3 -4 -33z"/>
<path d="M182 1025 c0 -16 4 -43 8 -60 11 -42 11 -1 1 50 -7 34 -9 35 -9 10z"/>
<path d="M1010 2289 c0 -7 -9 -9 -21 -6 -24 6 -59 -11 -59 -30 0 -8 9 -9 32
-2 42 12 51 11 43 -1 -3 -5 -19 -10 -35 -10 -16 0 -32 -5 -36 -11 -5 -9 1 -10
20 -5 18 4 25 3 21 -4 -3 -5 0 -10 9 -10 8 0 23 -3 33 -6 16 -6 15 -5 -2 9
-18 14 -18 16 -3 22 17 7 23 65 6 65 -4 0 -8 -5 -8 -11z"/>
<path d="M1125 2230 c-3 -5 -1 -10 4 -10 6 0 11 5 11 10 0 6 -2 10 -4 10 -3 0
-8 -4 -11 -10z"/>
<path d="M1056 2201 c-4 -6 -2 -20 5 -32 8 -17 8 -23 -2 -29 -13 -9 -49 9 -49
24 0 4 -7 3 -15 -4 -8 -7 -15 -22 -15 -33 0 -19 1 -19 13 -4 8 11 17 14 27 7
12 -7 9 -13 -14 -31 -32 -25 -23 -45 15 -30 16 6 31 5 42 -1 9 -5 22 -6 27 -3
13 8 -10 45 -28 45 -7 0 -10 5 -7 11 4 6 13 8 21 5 17 -7 17 -1 0 48 -7 21
-16 34 -20 27z m2 -108 c-10 -2 -26 -2 -35 0 -10 3 -2 5 17 5 19 0 27 -2 18
-5z"/>
<path d="M1230 2122 c6 -13 14 -21 18 -18 3 4 -2 14 -12 24 -18 16 -18 16 -6
-6z"/>
<path d="M1020 2050 c0 -5 9 -10 21 -10 11 0 17 5 14 10 -3 6 -13 10 -21 10
-8 0 -14 -4 -14 -10z"/>
<path d="M1240 2025 c36 -24 60 -60 65 -96 5 -39 15 -50 16 -18 2 40 -2 53
-24 77 -24 25 -13 30 15 5 19 -17 24 -8 9 16 -5 8 -22 15 -38 16 -15 1 -37 5
-48 9 -14 5 -12 2 5 -9z"/>
<path d="M1188 1994 c15 -27 71 -79 78 -71 9 9 -2 22 -48 58 -28 23 -38 27
-30 13z"/>
<path d="M569 1703 c-19 -5 -26 -76 -19 -213 2 -38 5 -19 11 63 4 66 13 125
20 133 14 17 10 22 -12 17z"/>
<path d="M417 1963 c-14 -48 -18 -83 -9 -83 5 0 12 21 15 48 5 49 2 66 -6 35z"/>
<path d="M1064 1465 c-1 -13 4 -26 12 -29 22 -9 28 15 8 35 -19 18 -19 18 -20
-6z"/>
<path d="M863 1399 c1 -11 9 -19 19 -19 20 0 15 25 -7 34 -9 3 -13 -2 -12 -15z"/>
<path d="M1060 1240 c0 -5 5 -10 10 -10 6 0 10 5 10 10 0 6 -4 10 -10 10 -5 0
-10 -4 -10 -10z"/>
<path d="M1180 1625 c-13 -14 -21 -27 -18 -30 2 -3 15 6 28 20 13 14 21 27 18
30 -2 3 -15 -6 -28 -20z"/>
<path d="M977 1259 c7 -7 15 -10 18 -7 3 3 -2 9 -12 12 -14 6 -15 5 -6 -5z"/>
<path d="M1010 1180 c0 -5 5 -10 11 -10 5 0 7 5 4 10 -3 6 -8 10 -11 10 -2 0
-4 -4 -4 -10z"/>
<path d="M1196 903 c9 -21 28 -66 41 -101 14 -35 27 -61 30 -58 9 9 -67 196
-79 196 -5 0 -1 -17 8 -37z"/>
<path d="M961 755 c-1 -94 5 -135 20 -135 5 0 6 6 4 13 -8 24 -13 106 -6 109
4 2 1 26 -5 53 l-12 50 -1 -90z"/>
<path d="M1570 541 c0 -5 7 -15 17 -22 15 -13 15 -12 4 9 -12 23 -21 28 -21
13z"/>
<path d="M1615 460 c3 -5 8 -10 11 -10 2 0 4 5 4 10 0 6 -5 10 -11 10 -5 0 -7
-4 -4 -10z"/>
<path d="M895 530 c-3 -5 -1 -10 4 -10 6 0 11 5 11 10 0 6 -2 10 -4 10 -3 0
-8 -4 -11 -10z"/>
<path d="M1256 321 c10 -10 23 -16 27 -14 12 7 -13 33 -31 33 -13 0 -12 -3 4
-19z"/>
<path d="M1145 320 c-4 -6 5 -10 20 -10 15 0 24 4 20 10 -3 6 -12 10 -20 10
-8 0 -17 -4 -20 -10z"/>
<path d="M1416 291 c-4 -7 -5 -15 -2 -18 9 -9 19 4 14 18 -4 11 -6 11 -12 0z"/>
<path d="M1065 240 c3 -5 8 -10 11 -10 2 0 4 5 4 10 0 6 -5 10 -11 10 -5 0 -7
-4 -4 -10z"/>
<path d="M1015 230 c3 -5 11 -10 16 -10 6 0 7 5 4 10 -3 6 -11 10 -16 10 -6 0
-7 -4 -4 -10z"/>
<path d="M980 216 c0 -9 5 -16 10 -16 6 0 10 4 10 9 0 6 -4 13 -10 16 -5 3
-10 -1 -10 -9z"/>
<path d="M1201 2305 c0 -11 4 -29 9 -40 8 -18 9 -18 9 5 0 14 -4 32 -9 40 -8
12 -10 12 -9 -5z"/>
<path d="M1284 2283 c4 -7 2 -13 -4 -13 -6 0 -8 -5 -4 -11 4 -8 9 -8 17 0 8 8
7 14 -2 24 -11 10 -13 10 -7 0z"/>
</g>
</svg>
