<?xml version="1.0" standalone="no"?>
<!DOCTYPE svg PUBLIC "-//W3C//DTD SVG 20010904//EN"
 "http://www.w3.org/TR/2001/REC-SVG-20010904/DTD/svg10.dtd">
<svg version="1.0" xmlns="http://www.w3.org/2000/svg"
 width="204.000000pt" height="246.000000pt" viewBox="0 0 204.000000 246.000000"
 preserveAspectRatio="xMidYMid meet">
<metadata>
Created by potrace 1.10, written by Peter Selinger 2001-2011
</metadata>
<g transform="translate(0.000000,246.000000) scale(0.100000,-0.100000)"
fill="#000000" stroke="none">
<path d="M24 1898 c3 -288 9 -823 12 -1191 l6 -667 107 0 c178 0 1319 19 1594
26 l257 6 0 1168 0 1167 -602 6 c-331 4 -777 7 -991 7 l-389 0 6 -522z m1882
420 c8 -9 11 -2144 3 -2153 -6 -6 -589 -18 -1365 -30 l-412 -6 -6 738 c-3 406
-8 902 -11 1102 l-6 363 895 -3 c492 -2 898 -7 902 -11z"/>
<path d="M187 2253 c-2 -5 -3 -30 -2 -58 1 -27 2 -173 3 -322 l2 -273 30 0
c17 0 47 -7 67 -15 65 -27 106 -15 143 45 34 55 92 76 141 50 38 -21 11 -79
-53 -111 -30 -15 -39 -25 -36 -42 3 -19 9 -22 49 -21 47 0 71 15 182 111 39
34 81 43 90 19 10 -25 -34 -95 -99 -160 -70 -70 -84 -97 -84 -157 0 -51 38
-92 101 -109 59 -16 106 -7 144 30 42 41 86 41 117 0 13 -18 31 -30 44 -30 14
0 31 12 44 30 30 42 86 42 123 0 19 -21 37 -30 60 -32 112 -5 177 40 177 122
0 50 -24 91 -88 152 -59 57 -109 138 -97 158 15 24 56 7 124 -50 110 -92 168
-113 191 -71 8 16 6 23 -16 38 -65 46 -84 66 -84 89 0 26 26 44 64 44 40 0 54
-9 90 -60 39 -54 74 -68 122 -49 16 7 47 15 69 18 37 6 40 8 39 36 -1 17 -2
162 -3 323 l-1 292 -69 0 -69 0 29 -31 c20 -21 29 -42 29 -64 0 -56 -26 -67
-238 -95 -253 -34 -296 -55 -355 -172 -52 -105 -59 -235 -16 -325 11 -23 53
-78 94 -122 74 -80 90 -116 60 -128 -9 -3 -25 3 -35 12 -28 26 -110 31 -160
11 -51 -20 -120 -21 -167 -1 -49 21 -101 19 -147 -6 -21 -11 -45 -18 -52 -15
-28 11 -12 42 56 116 99 107 123 159 123 269 -1 100 -22 168 -79 244 -54 74
-94 87 -389 127 -98 14 -165 34 -177 53 -17 26 -7 67 23 102 l31 35 -70 0
c-39 0 -73 -3 -75 -7z m478 -445 c35 -16 29 -47 -15 -72 -28 -17 -53 -21 -125
-21 l-90 0 0 29 c0 43 26 55 60 28 39 -31 62 -27 98 13 34 39 36 40 72 23z
m784 -23 c37 -40 58 -43 94 -15 30 24 41 25 57 5 10 -12 10 -21 1 -41 -11 -25
-14 -26 -89 -22 -118 6 -185 47 -146 89 25 28 45 23 83 -16z"/>
<path d="M1442 1164 c-27 -19 -52 -65 -51 -96 0 -18 23 -38 106 -91 104 -67
141 -78 128 -37 -13 40 -137 240 -148 240 -7 0 -23 -7 -35 -16z"/>
<path d="M547 1148 c-114 -185 -142 -248 -109 -248 10 0 199 124 220 144 17
16 1 60 -36 99 -31 33 -57 35 -75 5z"/>
<path d="M831 968 c-18 -5 -43 -15 -55 -23 -11 -7 -52 -25 -91 -40 -83 -31
-115 -50 -115 -70 0 -22 136 -97 244 -134 68 -24 108 -44 140 -72 59 -52 96
-53 147 -3 24 23 72 50 141 78 116 47 226 110 235 134 8 21 -26 47 -90 68 -28
9 -73 27 -100 41 -71 35 -123 39 -195 14 l-61 -21 -62 20 c-67 22 -87 23 -138
8z m102 -119 c12 -6 34 -24 49 -40 15 -16 34 -29 42 -29 8 0 36 18 61 40 44
38 49 40 116 40 116 0 104 -41 -29 -107 -124 -62 -222 -54 -345 27 -55 37 -65
57 -34 70 32 13 114 12 140 -1z"/>
<path d="M1810 755 c-19 -49 -39 -99 -44 -111 -12 -29 7 -54 40 -54 36 0 45
30 42 147 l-3 107 -35 -89z"/>
<path d="M198 700 c3 -108 5 -120 23 -125 25 -8 56 2 63 21 3 9 -12 56 -34
105 -22 49 -40 93 -40 98 0 6 -3 12 -7 14 -5 3 -7 -48 -5 -113z"/>
<path d="M1535 505 c-33 -19 -73 -35 -88 -35 -24 0 -31 -7 -48 -47 -56 -132
-197 -192 -418 -180 -195 11 -285 60 -325 175 -12 34 -17 38 -59 44 -25 3 -62
18 -83 32 -69 47 -111 24 -65 -35 10 -13 26 -39 35 -57 16 -31 16 -36 2 -58
-40 -59 -129 -34 -224 63 l-62 64 0 -132 0 -132 562 7 c310 3 679 9 821 13
l257 6 0 129 0 130 -40 -51 c-43 -55 -129 -111 -170 -111 -35 0 -70 27 -70 54
0 12 15 46 34 76 32 51 37 80 12 80 -6 0 -38 -16 -71 -35z"/>
</g>
</svg>
